<mxfile host="app.diagrams.net" agent="Mozilla/5.0 (Windows NT 10.0; Win64; x64) AppleWebKit/537.36 (KHTML, like Gecko) Chrome/134.0.0.0 Safari/537.36" version="26.1.0">
  <diagram name="Page-1" id="VGFZj9fIh8dmlVrBiISh">
    <mxGraphModel dx="737" dy="318" grid="1" gridSize="10" guides="1" tooltips="1" connect="1" arrows="1" fold="1" page="1" pageScale="1" pageWidth="827" pageHeight="1169" math="0" shadow="0">
      <root>
        <mxCell id="0" />
        <mxCell id="1" parent="0" />
        <mxCell id="w9KXQvv5ElY8Gr5ibtP6-3" value="" style="edgeStyle=orthogonalEdgeStyle;rounded=0;orthogonalLoop=1;jettySize=auto;html=1;" edge="1" parent="1" source="w9KXQvv5ElY8Gr5ibtP6-1" target="w9KXQvv5ElY8Gr5ibtP6-2">
          <mxGeometry relative="1" as="geometry" />
        </mxCell>
        <mxCell id="w9KXQvv5ElY8Gr5ibtP6-1" value="Start" style="whiteSpace=wrap;html=1;aspect=fixed;" vertex="1" parent="1">
          <mxGeometry x="160" y="40" width="80" height="80" as="geometry" />
        </mxCell>
        <mxCell id="w9KXQvv5ElY8Gr5ibtP6-2" value="" style="whiteSpace=wrap;html=1;aspect=fixed;" vertex="1" parent="1">
          <mxGeometry x="160" y="200" width="80" height="80" as="geometry" />
        </mxCell>
        <mxCell id="w9KXQvv5ElY8Gr5ibtP6-4" value="" style="ellipse;whiteSpace=wrap;html=1;aspect=fixed;" vertex="1" parent="1">
          <mxGeometry x="187.5" y="237.5" width="5" height="5" as="geometry" />
        </mxCell>
        <mxCell id="w9KXQvv5ElY8Gr5ibtP6-5" value="" style="ellipse;whiteSpace=wrap;html=1;aspect=fixed;" vertex="1" parent="1">
          <mxGeometry x="210" y="210" width="15" height="15" as="geometry" />
        </mxCell>
        <mxCell id="w9KXQvv5ElY8Gr5ibtP6-6" value="" style="ellipse;whiteSpace=wrap;html=1;aspect=fixed;" vertex="1" parent="1">
          <mxGeometry x="170" y="222.5" width="15" height="15" as="geometry" />
        </mxCell>
        <mxCell id="w9KXQvv5ElY8Gr5ibtP6-7" value="" style="ellipse;whiteSpace=wrap;html=1;aspect=fixed;" vertex="1" parent="1">
          <mxGeometry x="202.5" y="250" width="15" height="15" as="geometry" />
        </mxCell>
        <mxCell id="w9KXQvv5ElY8Gr5ibtP6-9" value="" style="endArrow=none;html=1;rounded=0;entryX=0.25;entryY=0;entryDx=0;entryDy=0;" edge="1" parent="1">
          <mxGeometry width="50" height="50" relative="1" as="geometry">
            <mxPoint x="240" y="260" as="sourcePoint" />
            <mxPoint x="190" y="200" as="targetPoint" />
            <Array as="points">
              <mxPoint x="200" y="230" />
            </Array>
          </mxGeometry>
        </mxCell>
        <mxCell id="w9KXQvv5ElY8Gr5ibtP6-10" value="" style="endArrow=none;html=1;rounded=0;entryX=0;entryY=0.75;entryDx=0;entryDy=0;exitX=0.5;exitY=1;exitDx=0;exitDy=0;" edge="1" parent="1" source="w9KXQvv5ElY8Gr5ibtP6-2" target="w9KXQvv5ElY8Gr5ibtP6-2">
          <mxGeometry width="50" height="50" relative="1" as="geometry">
            <mxPoint x="230" y="260" as="sourcePoint" />
            <mxPoint x="280" y="210" as="targetPoint" />
            <Array as="points">
              <mxPoint x="190" y="260" />
            </Array>
          </mxGeometry>
        </mxCell>
        <mxCell id="w9KXQvv5ElY8Gr5ibtP6-11" value="" style="endArrow=none;html=1;rounded=0;" edge="1" parent="1">
          <mxGeometry width="50" height="50" relative="1" as="geometry">
            <mxPoint x="159.99999999999994" y="245.83333333333331" as="sourcePoint" />
            <mxPoint x="159.99999999999994" y="259.1666666666667" as="targetPoint" />
            <Array as="points">
              <mxPoint x="160" y="200" />
            </Array>
          </mxGeometry>
        </mxCell>
      </root>
    </mxGraphModel>
  </diagram>
</mxfile>
